<mxfile host="app.diagrams.net" modified="2022-08-30T14:23:40.000Z" agent="5.0 (Windows NT 10.0; Win64; x64) AppleWebKit/537.36 (KHTML, like Gecko) Chrome/104.0.0.0 Safari/537.36" etag="Ygnu33AexdKn46n7SMHP" version="20.2.7" type="github">
  <diagram id="mI9CHjfRKkApZ2Oig0kl" name="Страница 1">
    <mxGraphModel dx="1662" dy="882" grid="1" gridSize="10" guides="1" tooltips="1" connect="1" arrows="1" fold="1" page="1" pageScale="1" pageWidth="827" pageHeight="1169" math="0" shadow="0">
      <root>
        <mxCell id="0" />
        <mxCell id="1" parent="0" />
        <mxCell id="9WfXSOXhKIP_xHc56vow-1" value="&lt;h1&gt;Версионность форм&amp;nbsp;&lt;/h1&gt;&lt;p&gt;Существует понятие версионность форм сущности ... Есть старые формы, есть новые формы... Старые формы открывают одни страницы, новые формы - другие страницы ...&lt;/p&gt;&lt;p&gt;Видимо это сделано чтобы не усложнять страницы...&lt;/p&gt;&lt;p&gt;Пример - Dossier2.aspx открывается на старых формах&amp;nbsp;&lt;/p&gt;" style="text;html=1;strokeColor=none;fillColor=none;spacing=5;spacingTop=-20;whiteSpace=wrap;overflow=hidden;rounded=0;" vertex="1" parent="1">
          <mxGeometry x="40" y="40" width="760" height="160" as="geometry" />
        </mxCell>
      </root>
    </mxGraphModel>
  </diagram>
</mxfile>
